<?xml version="1.0" encoding="UTF-8"?>
<svg id="Layer_2" data-name="Layer 2" xmlns="http://www.w3.org/2000/svg" viewBox="0 0 227.74 227.74">
  <defs>
    <style>
      .cls-1 {
        fill: #6067af;
      }
    </style>
  </defs>
  <g id="Layer_1-2" data-name="Layer 1">
    <path class="cls-1" d="M114.94,0c-13.54-.12-26.53,2.12-38.6,6.33-1.5,.52-2.49,1.96-2.49,3.55v11.4c0,31.82,.3,63.6,.58,95.42,.13,14.86-.04,28.89,10.62,40.68,7.16,7.92,17.21,12.8,27.87,13.43,23.69,1.4,43.34-17.4,43.34-40.79l-4.36,.07c-2.74,.05-4.4-3.02-2.86-5.29l27.96-41.34c2.87-4.24,9.49-2.21,9.49,2.91v43.57h.05c0,.2,.02,.4,.02,.6,0,39.58-32.08,71.66-71.66,71.66s-71.66-32.08-71.66-71.66c0-2.25,.12-4.46,.32-6.66V28.46c0-1.68-1.97-2.59-3.24-1.51C15.37,48.08-.36,79.75,0,115.09c.64,61.71,51.06,112.07,112.77,112.65,62.8,.59,114-49.66,114.96-112.1C228.69,52.77,177.82,.58,114.94,0Z"/>
  </g>
</svg>